<?xml version="1.0" encoding="utf-8"?>
<!-- Generator: Adobe Illustrator 15.0.0, SVG Export Plug-In . SVG Version: 6.00 Build 0)  -->
<!DOCTYPE svg PUBLIC "-//W3C//DTD SVG 1.1//EN" "http://www.w3.org/Graphics/SVG/1.1/DTD/svg11.dtd">
<svg version="1.1" xmlns="http://www.w3.org/2000/svg" xmlns:xlink="http://www.w3.org/1999/xlink" x="0px" y="0px" width="400px"
	 height="400px" viewBox="0 0 400 400" enable-background="new 0 0 400 400" xml:space="preserve">
<g id="Layer_2" display="none">
	<rect x="-60.5" y="-30.5" display="inline" fill-rule="evenodd" clip-rule="evenodd" fill="#D1D3D4" width="526" height="503"/>
</g>
<g id="Layer_1">
	<g>
		<path fill="#C42231" d="M388.365,98.305l0.023,3.914h0.957v-3.914H388.365z"/>
		<path fill="#C42231" d="M385.447,94.289c-1.463-1.467-3.398-2.236-5.479-2.236s-4.051,0.77-5.518,2.236
			c-0.959,0.959-1.637,2.127-1.99,3.402c-0.186,0.674-0.283,1.375-0.283,2.094c0,2.082,0.809,4.035,2.273,5.498
			c1.467,1.467,3.42,2.275,5.498,2.275c2.082,0,4.035-0.809,5.498-2.271c3.033-3.033,2.992-8.068,0.031-11.027 M379.387,100.279
			v-4.943h0.971v3.963h5.049v0.98H379.387z"/>
		<path fill="#C42231" d="M380.078,91.059c1.559,0,3.037,0.414,4.324,1.17l0.279-0.252l-1.414-3.707h-6.426l-1.402,3.707
			l0.273,0.256c1.295-0.76,2.789-1.221,4.365-1.221"/>
		<path fill="#C42231" d="M380.059,108.477c-1.555,0-3.039-0.422-4.34-1.195l-0.271,0.279l1.395,3.703h6.426l1.406-3.703
			l-0.279-0.275C383.096,108.057,381.613,108.477,380.059,108.477"/>
		<path fill="#C42231" d="M346.361,99.293l0.004-4.711c-0.178-2.863-3.336-5.279-6.215-5.279c-2.877,0-5.271,2.184-5.771,5.018
			v2.945h1.955l-0.043-2.873c0.139-2.227,1.531-3.158,3.768-3.158s4.32,1.152,4.32,3.41v4.648h-12.016v9.377
			c0,0.828,0.896,1.605,1.725,1.605h12.771c0.828,0,1.525-0.777,1.525-1.605v-9.377H346.361z M339.904,106.297
			c-0.828,0-1.5-0.672-1.5-1.5s0.672-1.5,1.5-1.5s1.5,0.672,1.5,1.5s-0.609,1.5-1.438,1.5"/>
		<path fill="#C42231" d="M290.359,91.785v16c0,0.828,0.672,1.5,1.5,1.5h16.006c0.826,0,1.5-0.672,1.5-1.5v-16
			c0-0.828-0.674-1.5-1.5-1.5h-16.006C291.031,90.285,290.359,90.957,290.359,91.785 M298.369,95.299v1h-1.99v2h-1v-2h-2.002v-1
			h2.002v-2.031h1v2.031H298.369z M296.377,102.268h-1v-1h1V102.268z M298.377,104.299h-5v-1h5V104.299z M296.377,106.299h-1v-1h1
			V106.299z M306.32,105.535l-0.752,0.756l-1.707-1.744l-1.703,1.744l-0.754-0.754l1.709-1.748l-1.709-1.75l0.754-0.754l1.703,1.744
			l1.707-1.744l0.752,0.754l-1.715,1.75L306.32,105.535z M301.346,95.299h5.031v1h-5.031V95.299z"/>
		<path fill="#C42231" d="M263.393,100.012l-0.137-0.244l0.137-0.244c0.145-0.256,1.787-3.225,3.281-3.225h3.725v-1.531
			c0-0.826-0.674-1.5-1.5-1.5h-17.125c-0.414,0-0.475,0.461-0.475,0.047c0-0.412,0.061-1.031,0.475-1.031h14.094h0.5v0.969h1
			c0,0-0.018-0.818-0.051-0.969c-0.152-0.666-0.648-1-1.549-1h-13.656c-0.967,0-1.75,0.754-1.75,1.719v12.766
			c0,0.828,0.672,1.5,1.5,1.5h17.037c0.826,0,1.5-0.672,1.5-1.5v-2.469h-3.725C265.18,103.299,263.537,100.268,263.393,100.012"/>
		<path fill="#C42231" d="M270.367,97.299h-3.219c-1.242,0-2.75,2.469-2.75,2.469s1.508,2.531,2.75,2.531h3.219
			c0.551,0,1-0.791,1-1.344v-2.5C271.367,97.904,270.918,97.299,270.367,97.299 M267.305,100.268h-0.906v-1h0.906V100.268z"/>
		<path fill="#C42231" d="M225.115,104.205c-1.736,0-1.488-1.084-1.414-1.5c1.348-0.615,2.678-1.973,2.678-3.549v-4.674
			c0-2.145-2.383-4.197-4.543-4.197c-2.215,0-4.457,2.123-4.457,4.197v4.674c0,1.5,1.557,2.805,2.801,3.455
			c0.035,0.363,0.311,1.594-1.557,1.594c-4.549,0-5.244,0.984-5.244,3.484v1.562h16.969v-1.562
			C230.348,105.189,229.035,104.205,225.115,104.205"/>
		<path fill="#C42231" d="M216.867,100.293c-1.197,0-2.516,0.174-2.516-1.025v-4.545c0-1.199,0.381-1.453,1.58-1.453
			c0.275,0,0.498-0.223,0.498-0.5c0-0.275-0.223-0.5-0.498-0.5c-1.75,0-2.58,0.703-2.58,2.453v4.545
			c0,1.197,1.012,1.094,1.992,1.633c0.004,0.764,0.254,1.336-0.746,1.367c-0.26,0.01-2.719,0-2.719,0s-0.5,0-1,0.5
			s-0.5,2.438-0.5,2.438v3.047h1l-0.006-2.908c-0.004-0.654-0.014-1.623,0.193-1.881c0.188-0.234-0.039-0.195,2.027-0.195
			c1.861,0,2.627-0.289,2.754-1.906h0.5c0.277,0,0.521-0.293,0.521-0.568C217.369,100.516,217.145,100.293,216.867,100.293"/>
		<path fill="#C42231" d="M190.944,91.291h-18.238c-0.847,0-1.315,0.439-1.315,1.285v0.736h-0.466c-0.849,0-1.534,0.688-1.532,1.535
			l-0.028,8.416h19.035v2.012h-18.985l-0.012,0.449c-0.008,0.848,0.674,1.535,1.522,1.535h17.907c0.848,0,1.54-0.688,1.54-1.535
			v-0.438h0.572c0.847,0,1.411-0.689,1.411-1.535V92.576C192.355,91.73,191.791,91.291,190.944,91.291 M185.365,100.219h3.034v1.012
			h-3.034V100.219z M191.394,103.564c0,0.283-0.229,0.711-0.513,0.711h-0.51v-9.428c0-0.848-0.692-1.535-1.54-1.535h-16.511v-0.486
			c0-0.283,0.233-0.512,0.516-0.512h18.045c0.283,0,0.513,0.229,0.513,0.512V103.564z"/>
		<path fill="#C42231" d="M146.479,107.461c1.824-1.728,2.973-4.161,2.973-6.867c0-5.223-4.249-9.605-9.472-9.605
			c-5.223,0-9.468,4.383-9.468,9.605c0,2.706,1.145,5.139,2.969,6.867h-4.333v0.807h21.638v-0.807H146.479z M139.456,96.186v-1.023
			h1.024v1.023h1.024v1.023h-1.959c-0.513,0-0.896,0.553-0.896,1.141c0,0.559,0.455,0.908,1.014,0.908h0.765
			c1.124,0,2.038,1.021,2.038,2.145c0,1.139-0.762,2.463-1.896,2.463h-0.088v1.025h-1.024v-1.025h-1.536v-1.023h2.648
			c0.492,0,0.873-0.822,0.873-1.439c0-0.559-0.455-1.121-1.014-1.121h-0.765c-1.124,0-2.082-0.807-2.082-1.932
			C137.58,97.254,137.92,96.186,139.456,96.186z"/>
		<g>
			<path fill="#C42231" d="M14.374,91.311c0.22-0.221,0.22-0.576,0-0.797s-0.576-0.221-0.796,0l-2.816,2.816
				c-0.22,0.219-0.22,0.576,0,0.795c0.11,0.111,0.254,0.166,0.398,0.166c0.145,0,0.289-0.055,0.398-0.166L14.374,91.311z"/>
			<path fill="#C42231" d="M29.58,93.33l-2.816-2.816c-0.22-0.221-0.576-0.221-0.796,0s-0.22,0.576,0,0.797l2.816,2.814
				c0.11,0.111,0.254,0.166,0.398,0.166c0.145,0,0.289-0.055,0.398-0.166C29.8,93.906,29.8,93.549,29.58,93.33z"/>
			<path fill="#C42231" d="M22.143,91.051v-0.197c0.718-0.572,1.18-1.455,1.18-2.443c0-1.727-1.405-3.131-3.131-3.131
				s-3.13,1.404-3.13,3.131c0,0.988,0.461,1.871,1.179,2.443v0.197c-4.035,0.891-7.054,4.486-7.054,8.789
				c0,4.975,4.031,9.006,9.004,9.006s8.99-3.949,8.99-8.922C29.182,95.619,26.177,91.941,22.143,91.051z M17.901,88.41
				c0-1.264,1.027-2.291,2.291-2.291c1.263,0,2.292,1.027,2.292,2.291c0,0.443-0.133,0.854-0.351,1.203
				c-0.046-0.393-0.375-0.697-0.78-0.697h-2.322c-0.404,0-0.734,0.305-0.781,0.697C18.033,89.264,17.901,88.854,17.901,88.41z
				 M20.762,104.24h-0.013v1.023h-1.126v-1.023h-1.676v-1.127h2.816c0.541,0,0.96-0.787,0.96-1.465c0-0.615-0.501-1.117-1.115-1.117
				h-0.842c-1.236,0-2.242-1.006-2.242-2.24c0-1.207,0.849-2.498,2.112-2.498v-1.127h1.126v1.127h1.126v1.125h-2.253
				c-0.564,0-0.986,0.725-0.986,1.373c0,0.613,0.5,1.113,1.115,1.113h0.842c1.236,0,2.242,1.008,2.242,2.244
				C22.848,102.9,22.01,104.24,20.762,104.24z"/>
		</g>
		<g>
			<path fill="#2C2C30" d="M12.638,9.518c0.275-0.275,0.275-0.72,0-0.996s-0.72-0.275-0.996,0l-3.52,3.52
				c-0.275,0.275-0.275,0.72,0,0.996c0.137,0.137,0.318,0.206,0.498,0.206c0.18,0,0.36-0.069,0.498-0.206L12.638,9.518z"/>
			<path fill="#2C2C30" d="M31.646,12.042l-3.52-3.52c-0.275-0.275-0.72-0.275-0.996,0c-0.275,0.275-0.275,0.72,0,0.996l3.52,3.52
				c0.137,0.137,0.318,0.206,0.498,0.206s0.36-0.069,0.498-0.206C31.921,12.763,31.921,12.318,31.646,12.042z"/>
			<path fill="#2C2C30" d="M22.349,9.193V8.948c0.898-0.717,1.475-1.819,1.475-3.054c0-2.159-1.756-3.914-3.914-3.914
				s-3.913,1.755-3.913,3.914c0,1.235,0.577,2.337,1.474,3.054v0.246c-5.043,1.115-8.817,5.609-8.817,10.988
				c0,6.217,5.04,11.256,11.255,11.256c6.216,0,11.238-4.937,11.238-11.153C31.148,14.905,27.392,10.308,22.349,9.193z
				 M17.046,5.893c0-1.58,1.284-2.864,2.864-2.864c1.579,0,2.865,1.285,2.865,2.864c0,0.554-0.166,1.066-0.438,1.504
				c-0.058-0.491-0.47-0.872-0.976-0.872h-2.902c-0.505,0-0.917,0.381-0.976,0.872C17.211,6.959,17.046,6.447,17.046,5.893z
				 M20.623,25.212h-0.017v1.28h-1.408v-1.28h-2.095v-1.408h3.52c0.676,0,1.2-0.985,1.2-1.833c0-0.769-0.626-1.395-1.394-1.395
				h-1.053c-1.545,0-2.802-1.257-2.802-2.802c0-1.508,1.061-3.122,2.641-3.122v-1.408h1.408v1.408h1.408v1.408h-2.816
				c-0.705,0-1.233,0.904-1.233,1.714c0,0.768,0.626,1.394,1.394,1.394h1.053c1.545,0,2.802,1.257,2.802,2.803
				C23.23,23.537,22.183,25.212,20.623,25.212z"/>
		</g>
		<path fill="#2C2C30" d="M69.02,29.683c2.281-2.159,3.716-5.202,3.716-8.583c0-6.529-5.311-11.84-11.84-11.84
			c-6.528,0-11.834,5.312-11.834,11.84c0,3.381,1.43,6.424,3.711,8.583h-5.416v1.009h27.047v-1.009H69.02z M60.24,16.299v-1.28h1.28
			v1.28h1.28v1.28h-2.449c-0.641,0-1.121,0.69-1.121,1.425c0,0.699,0.569,1.135,1.267,1.135h0.956c1.406,0,2.548,1.276,2.548,2.681
			c0,1.422-0.952,3.079-2.371,3.079h-0.11v1.28h-1.28v-1.28h-1.92v-1.28h3.311c0.615,0,1.091-1.029,1.091-1.799
			c0-0.699-0.569-1.401-1.268-1.401h-0.956c-1.405,0-2.603-1.01-2.603-2.415C57.895,17.634,58.32,16.299,60.24,16.299z"/>
		<path fill="#2C2C30" d="M113.758,9.711H90.005c-1.059,0-1.644,0.549-1.644,1.607v1.405h-1.051c-1.06,0-1.917,0.859-1.915,1.92
			L85.36,25.711h24.028v1.968H85.422l-0.016,1.107c-0.009,1.061,0.844,1.92,1.904,1.92h23.165c1.06,0,1.925-0.859,1.925-1.92v-0.078
			h1.357c1.059,0,1.607-0.861,1.607-1.92v-15.47C115.365,10.261,114.816,9.711,113.758,9.711z M109.388,22.699h-4.027v-1.03h4.027
			V22.699z M114.398,26.789c0,0.354-0.287,0.89-0.64,0.89H112.4V14.644c0-1.061-0.865-1.92-1.925-1.92H89.36v-1.405
			c0-0.354,0.292-0.64,0.645-0.64h23.752c0.354,0,0.64,0.286,0.64,0.64V26.789z"/>
		<path fill-rule="evenodd" clip-rule="evenodd" fill="#C42231" d="M38.599,163.176v-39.467l0,0
			c19.284,0,38.781,16.926,38.781,37.805c0,4.828-0.984,9.061-2.4,12.576L38.599,163.176z M34.037,167.053l33.599,10.08
			c-5.167,11.531-16.723,19.576-30.177,19.576c-18.269,0-33.078-14.809-33.078-33.078c0-17.049,13.754-31.418,29.656-33.078V167.053
			z"/>
		<path fill="#C42231" d="M133.418,130.244v-9.488l-8.186,6.324c0,0-14.979-1.064-23.814,13.582
			c-10.016,16.605-2.117,33.396-2.117,33.396l5.418,10.672h31.305l5.93-5.533c0,0-13.838-14.396-15.418-19.139
			c-1.582-4.746,0-7.791,0-7.791s4.742,4.801,12.65,1.639l7.908,3.191l6.324-6.311l-10.793-12.645
			C142.625,138.143,141.418,130.244,133.418,130.244"/>
		<path fill="#C42231" d="M135.418,192.662v-3.932h-28.068v3.932h-2v4.068h32.068v-4.068H135.418z"/>
		<path fill="#C42231" d="M176.839,181.432l8.341,12.367c-2.366,1.65-4.487,3.65-6.289,5.941l-1.77-9.227h-9.952
			C169.914,187.021,173.175,183.955,176.839,181.432z M223.766,181.432l-8.34,12.367c2.367,1.65,4.486,3.65,6.289,5.941l1.77-9.227
			h9.951C230.693,187.021,227.43,183.955,223.766,181.432z M200.304,172.639c-8.09,0-15.667,2.191-22.175,6.008l8.363,12.4
			c4.117-2.236,8.818-3.49,13.812-3.49c4.991,0,9.692,1.254,13.81,3.49l8.363-12.4C215.969,174.83,208.393,172.639,200.304,172.639z
			 M191.685,184.695l-1.975-1.055l-1.974,1.055l0.394-2.203l-1.613-1.551l2.217-0.307l0.977-2.014l0.977,2.014l2.218,0.307
			l-1.614,1.551L191.685,184.695z M203.275,184.273l-3.015-1.611l-3.016,1.611l0.603-3.365l-2.466-2.369l3.388-0.469l1.492-3.076
			l1.491,3.076l3.387,0.469l-2.465,2.369L203.275,184.273z M212.783,184.695l-1.973-1.055l-1.975,1.055l0.395-2.203l-1.615-1.551
			l2.219-0.307l0.977-2.014l0.977,2.014l2.217,0.307l-1.615,1.551L212.783,184.695z M219.127,126.691
			c0,26.639-13.15,33.129-14.998,42.047h-7.62c-1.848-8.918-14.998-15.408-14.998-42.047H219.127z M184.574,155.312
			c-9.974-4.186-15.922-14.061-16.879-24.605h10.219c0.06,1.197,0.144,2.27,0.26,3.42h-6.328c1.06,4.965,3.689,11.576,10.166,15.836
			C182.815,151.92,183.686,153.693,184.574,155.312z M232.912,130.707c-0.957,10.529-6.889,20.391-16.838,24.588
			c0.889-1.623,1.762-3.398,2.564-5.361c6.445-4.26,9.064-10.854,10.121-15.807h-6.295c0.115-1.15,0.201-2.223,0.26-3.42H232.912z"
			/>
	</g>
	<g>
		<path fill="#2C2C30" d="M124.719,28.57l3.698,1.577c0.326,0.146,0.702,0.002,0.847-0.319c0.146-0.323,0.002-0.702-0.319-0.847
			l-5.006-2.167c-0.039-0.018-0.079-0.031-0.12-0.041c-0.143-0.033-0.154,0.016-0.288,0.083c-0.171,0.085-0.157,0.275-0.2,0.461
			l-1.501,5.403c-0.08,0.345,0.135,0.688,0.479,0.768c0.345,0.08,0.688-0.134,0.768-0.479l0.999-3.228
			c1.194,3.36,4.489,6.028,8.183,6.881c0.016,0.027,0.317-1.398,0.338-1.393C129.075,34.456,125.914,31.94,124.719,28.57z"/>
		<path fill="#2C2C30" d="M158.496,7.867c-0.345-0.08-0.688,0.135-0.768,0.48l-0.998,3.228c-1.195-3.36-4.523-5.768-8.217-6.621
			c0.025,0.042-0.265,1.227-0.33,1.234c3.521,0.813,6.707,3.227,7.902,6.596l-3.697-1.576c-0.326-0.146-0.703-0.002-0.848,0.319
			c-0.146,0.323-0.002,0.702,0.319,0.847l5.007,2.167c0.039,0.018,0.078,0.031,0.119,0.041c0.143,0.033,0.154-0.016,0.289-0.083
			c0.171-0.084,0.156-0.275,0.199-0.461l1.502-5.403C159.055,8.29,158.839,7.946,158.496,7.867z"/>
		<path fill="#2C2C30" d="M139.901,8.917c-6.211,0-11.247,5.035-11.247,11.247s5.035,11.247,11.247,11.247
			s11.247-5.035,11.247-11.247S146.113,8.917,139.901,8.917z M140.623,25.212h-0.017v1.28h-1.408v-1.28h-2.095v-1.408h3.52
			c0.676,0,1.2-0.985,1.2-1.833c0-0.769-0.626-1.395-1.394-1.395h-1.053c-1.545,0-2.802-1.257-2.802-2.802
			c0-1.508,1.061-3.122,2.641-3.122v-1.408h1.408v1.408h1.408v1.408h-2.816c-0.705,0-1.233,0.904-1.233,1.714
			c0,0.768,0.626,1.394,1.394,1.394h1.053c1.545,0,2.802,1.257,2.802,2.803C143.23,23.537,142.183,25.212,140.623,25.212z"/>
	</g>
	<g>
		<path fill="#C42231" d="M48.039,106.553l2.958,1.26c0.261,0.117,0.562,0.002,0.678-0.254c0.117-0.26,0.002-0.562-0.255-0.678
			l-4.005-1.734c-0.031-0.014-0.063-0.025-0.096-0.033c-0.114-0.025-0.123,0.014-0.23,0.066c-0.137,0.068-0.126,0.221-0.16,0.369
			l-1.201,4.322c-0.063,0.275,0.109,0.551,0.384,0.615c0.276,0.062,0.55-0.109,0.614-0.385l0.799-2.582
			c0.956,2.688,3.591,4.822,6.546,5.506c0.013,0.021,0.253-1.119,0.27-1.115C51.523,111.26,48.994,109.248,48.039,106.553z"/>
		<path fill="#C42231" d="M75.061,89.988c-0.276-0.062-0.55,0.107-0.614,0.385l-0.799,2.582c-0.956-2.689-3.618-4.615-6.573-5.297
			c0.02,0.033-0.212,0.982-0.264,0.986c2.816,0.65,5.366,2.582,6.322,5.277l-2.958-1.26c-0.261-0.117-0.561-0.002-0.677,0.254
			c-0.117,0.258-0.002,0.562,0.255,0.678l4.005,1.734c0.031,0.014,0.063,0.025,0.096,0.033c0.114,0.025,0.123-0.014,0.23-0.066
			c0.137-0.068,0.125-0.221,0.16-0.369l1.201-4.322C75.508,90.326,75.335,90.053,75.061,89.988z"/>
		<path fill="#C42231" d="M60.185,90.852c-4.969,0-8.997,4.028-8.997,8.997s4.028,8.997,8.997,8.997s8.997-4.028,8.997-8.997
			S65.153,90.852,60.185,90.852z M60.762,104.24h-0.013v1.023h-1.126v-1.023h-1.676v-1.127h2.816c0.541,0,0.96-0.787,0.96-1.465
			c0-0.615-0.501-1.117-1.115-1.117h-0.842c-1.236,0-2.242-1.006-2.242-2.24c0-1.207,0.849-2.498,2.112-2.498v-1.127h1.126v1.127
			h1.126v1.125h-2.253c-0.564,0-0.986,0.725-0.986,1.373c0,0.613,0.5,1.113,1.115,1.113h0.842c1.236,0,2.242,1.008,2.242,2.244
			C62.848,102.9,62.01,104.24,60.762,104.24z"/>
	</g>
	<path fill="#C42231" d="M116.186,99.414l-2.5-2.5c-0.195-0.195-0.511-0.195-0.707,0c-0.196,0.195-0.196,0.512,0,0.707l1.646,1.646
		h-5.473c-0.301-4.697-4.195-8.416-8.968-8.416c-4.969,0-8.997,4.028-8.997,8.997s4.028,8.997,8.997,8.997
		c4.827,0,8.755-3.805,8.976-8.578h5.465l-1.646,1.646c-0.196,0.195-0.196,0.512,0,0.707c0.097,0.098,0.226,0.146,0.353,0.146
		c0.128,0,0.256-0.049,0.354-0.146l2.5-2.5C116.381,99.926,116.381,99.609,116.186,99.414z M100.762,104.24h-0.013v1.023h-1.126
		v-1.023h-1.676v-1.127h2.816c0.541,0,0.96-0.787,0.96-1.465c0-0.615-0.501-1.117-1.115-1.117h-0.842
		c-1.236,0-2.242-1.006-2.242-2.24c0-1.207,0.849-2.498,2.112-2.498v-1.127h1.126v1.127h1.126v1.125h-2.253
		c-0.564,0-0.986,0.725-0.986,1.373c0,0.613,0.5,1.113,1.115,1.113h0.842c1.236,0,2.242,1.008,2.242,2.244
		C102.848,102.9,102.01,104.24,100.762,104.24z"/>
	<g>
		<path fill="#2C2C30" d="M167.481,9.126v21.872c0,1.133,0.918,2.051,2.05,2.051h21.88c1.131,0,2.051-0.918,2.051-2.051V9.126
			c0-1.133-0.92-2.05-2.051-2.05h-21.88C168.399,7.076,167.481,7.994,167.481,9.126 M178.432,13.929v1.367h-2.722v2.734h-1.367
			v-2.734h-2.736v-1.367h2.736v-2.777h1.367v2.777H178.432z M175.708,23.456h-1.367v-1.367h1.367V23.456z M178.442,26.232h-6.835
			v-1.367h6.835V26.232z M175.708,28.966h-1.367V27.6h1.367V28.966z M189.301,27.923l-1.03,1.033l-2.332-2.386l-2.33,2.386
			l-1.03-1.032l2.336-2.39l-2.336-2.392l1.03-1.031l2.33,2.386l2.332-2.386l1.03,1.031l-2.346,2.392L189.301,27.923z M182.5,15.296
			h6.878v1.367H182.5V15.296z"/>
	</g>
	<g>
		<path fill="#2C2C30" d="M235.243,27.398c-0.157-0.609-1.025-1.149-2.875-0.438c-3.553,1.365-5.119,1.501-7.001,1.848
			c-3.157,0.581-6.625,0.619-7.077-0.588c-0.433-1.154,0.766-1.336,0.978-1.337c1.611-0.015,2.835,0.378,3.682,0.351
			c1.035-0.034,2.31-0.521,2.716-1.389c0.311-0.666,0.174-1.646-0.618-1.835c-1.938-0.465-5.414-1.014-7.5-1.231
			c-0.884-0.091-2.355-0.161-3.187,0.015c-2.604,0.551-6.011,1.641-9.003,3.556l-0.036,5.089c3.796,2.564,9.944,2.365,13.43,2.247
			c2.361-0.08,5.527-0.474,7.056-0.797c1.303-0.276,5.377-2.13,8.457-3.548C235.253,28.883,235.377,28.028,235.243,27.398z"/>
		<path fill="#2C2C30" d="M227.036,6.527h-3.312c-3.425,0.757-5.988,3.81-5.988,7.463c0,4.222,3.423,7.645,7.645,7.645
			s7.632-3.353,7.632-7.575C233.013,10.407,230.462,7.285,227.036,6.527 M225.865,17.407h-0.012v0.869h-0.957v-0.869h-1.423v-0.956
			h2.392c0.458,0,0.814-0.669,0.814-1.245c0-0.522-0.426-0.948-0.947-0.948h-0.715c-1.049,0-1.902-0.854-1.902-1.903
			c0-1.024,0.72-2.121,1.793-2.121V9.279h0.957v0.956h0.956v0.957h-1.913c-0.479,0-0.837,0.614-0.837,1.164
			c0,0.521,0.425,0.947,0.946,0.947h0.715c1.05,0,1.903,0.854,1.903,1.904C227.636,16.269,226.924,17.407,225.865,17.407"/>
	</g>
	<g>
		<path fill="#2C2C30" d="M303.653,12.584c0,0,2.568-5.662,1.661-6.23c-0.906-0.568-3.1,1.596-3.318,1.524
			c-0.219-0.072-2.18-2.25-2.937-2.439c-0.758-0.189-1.752,0.343-2.572,1.29c-1.7-0.786-2.224-0.09-2.751,0.445
			c-0.526,0.536,2.296,5.179,2.296,5.179C298.256,13.42,300.813,13.499,303.653,12.584z"/>
		<path fill="#2C2C30" d="M303.896,14.438c-1.178,0.351-2.537,0.618-3.992,0.618c-1.29,0-2.649-0.207-4.004-0.743
			c-5.062,3.528-8.999,11.91-7.397,14.99c2.372,4.562,7.633,4.758,10.873,4.758c3.239,0,9.164,0.482,11.646-5.534
			C313.229,23.178,305.474,15.968,303.896,14.438z M300.364,29.039h-0.016v1.148h-1.262v-1.148h-1.879v-1.262h3.156
			c0.605,0,1.076-0.883,1.076-1.643c0-0.689-0.562-1.251-1.25-1.251h-0.944c-1.386,0-2.513-1.127-2.513-2.513
			c0-1.352,0.951-2.8,2.368-2.8v-1.263h1.263v1.263h1.263v1.263h-2.525c-0.633,0-1.105,0.812-1.105,1.537
			c0,0.689,0.562,1.25,1.25,1.25h0.944c1.385,0,2.512,1.127,2.512,2.514C302.702,27.536,301.763,29.039,300.364,29.039z"/>
	</g>
	<g>
		<path fill="#2C2C30" d="M343.502,21.205l-0.182-0.326l0.182-0.325c0.191-0.342,1.926-3.156,3.917-3.156h5.345v-2.98
			c0-1.104-0.897-2.001-2.001-2.001h-23.177c-0.552,0-0.878-0.449-0.878-1c0-0.551,0.407-1,0.959-1h19.222h0.83v1.986l1.09,0.041
			c0,0-0.021-1.094-0.067-1.294c-0.203-0.889-0.742-1.741-1.944-1.741h-19.089c-1.287,0-1.968,0.64-1.968,1.927v17.091
			c0,1.103,0.897,2.001,2.001,2.001H350.7c1.104,0,2.032-0.898,2.032-2.001v-4.002h-5.313
			C345.428,24.423,343.693,21.547,343.502,21.205"/>
		<path fill="#2C2C30" d="M352.398,18.445h-4.346c-1.657,0-3.418,2.408-3.418,2.408s1.761,2.607,3.418,2.607h4.336
			c0.736,0,1.344-0.629,1.344-1.365v-2.316C353.732,19.043,353.135,18.445,352.398,18.445 M349.746,21.414h-0.993v0.953h-1.074
			v-0.953h-0.912V20.42h0.912v-0.993h1.074v0.993h0.993V21.414z"/>
	</g>
	<g>
		<path fill="#2C2C30" d="M380.08,8.575l-12.301,6.088v1.794h24.609v-1.794L380.08,8.575z M389.444,19.43h-0.029v-1.005h-2.903
			v1.005h-0.016v8.865h-4.97V19.43h0.004v-1.005h-2.937v1.005h-0.015v8.865h-4.918V19.43h-0.015v-1.005h-2.923v1.005h-0.011v8.865
			h-1.985v2.963h22.691v-2.963h-1.975V19.43z"/>
	</g>
	<g>
		<path fill="#2C2C30" d="M19.053,55.27l5.298,5.298l-4.974,9.145c0,0-6.616,1.128-10.483,3.619l-0.816-0.797l4.63-4.63
			c0.406-0.407,0.934-0.664,1.504-0.735c0.315-0.04,0.62-0.178,0.862-0.421c0.581-0.581,0.64-1.583,0.059-2.164
			c-0.581-0.581-1.53-0.588-2.112-0.008c-0.242,0.243-0.382,0.548-0.421,0.863c-0.07,0.569-0.329,1.098-0.734,1.503l-4.63,4.63
			l-0.858-0.826c2.518-3.908,3.531-10.503,3.531-10.503L19.053,55.27z M22.837,46.181c-1.549,3.001-3.604,6.798-3.604,6.798
			l7.408,7.408c0,0,3.801-2.045,6.814-3.587L22.837,46.181z"/>
	</g>
	<path fill="#2C2C30" d="M65.174,46.755c-3.417,0-5.766,0-9.98,0c-1.145,2.928-3.849,4.627-6.614,6.063
		c0.583,9.097,3.443,18.058,11.403,19.939c7.958-1.881,11.223-10.842,11.805-19.939C69.022,51.382,66.318,49.683,65.174,46.755z
		 M61.105,64.26h-0.017v1.28H59.68v-1.28h-2.095v-1.408h3.52c0.676,0,1.2-0.985,1.2-1.833c0-0.769-0.626-1.395-1.394-1.395h-1.053
		c-1.545,0-2.802-1.257-2.802-2.802c0-1.508,1.061-3.122,2.641-3.122v-1.408h1.408V53.7h1.408v1.408h-2.816
		c-0.706,0-1.233,0.904-1.233,1.714c0,0.768,0.625,1.394,1.394,1.394h1.053c1.545,0,2.802,1.257,2.802,2.803
		C63.713,62.584,62.665,64.26,61.105,64.26z"/>
	<g>
		<path fill="#2C2C30" d="M264.454,30.425h-9.148c-0.604,0-1.09,0.487-1.09,1.09v0.902h11.328v-0.902
			C265.544,30.912,265.057,30.425,264.454,30.425z"/>
		<path fill="#2C2C30" d="M271.743,7.417h-23.6c-1.199,0-2.18,0.981-2.18,2.18v16.657c0,1.199,0.98,2.18,2.18,2.18h23.6
			c1.198,0,2.18-0.981,2.18-2.18V9.596C273.923,8.397,272.941,7.417,271.743,7.417z M271.931,23.474h-24.006V9.409h24.006V23.474z"
			/>
		<path fill="#2C2C30" d="M259.364,16.896h0.876c0.638,0,1.158,0.521,1.158,1.16c0,0.705-0.436,1.523-0.998,1.523h-2.925v1.17h1.741
			v1.064h1.17v-1.064h0.014c1.297,0,2.168-1.393,2.168-2.693c0-1.286-1.045-2.331-2.328-2.331h-0.876
			c-0.638,0-1.159-0.52-1.159-1.159c0-0.672,0.438-1.425,1.025-1.425h2.342v-1.17H260.4V10.8h-1.17v1.171
			c-1.313,0-2.195,1.342-2.195,2.595C257.035,15.851,258.08,16.896,259.364,16.896z"/>
	</g>
</g>
</svg>
